<?xml version="1.0" encoding="utf-8"?>
<!-- Generator: Adobe Illustrator 20.0.0, SVG Export Plug-In . SVG Version: 6.00 Build 0)  -->
<svg version="1.1" id="圖層_1" xmlns="http://www.w3.org/2000/svg" xmlns:xlink="http://www.w3.org/1999/xlink" x="0px" y="0px"
	 viewBox="0 0 23.6 23.6" style="enable-background:new 0 0 23.6 23.6;" xml:space="preserve">
<style type="text/css">
	.st0{fill:#FFFFFF;}
</style>
<title>Close/Dark Copy</title>
<desc>Created with Sketch.</desc>
<g>
	<g>
		<path class="st0" d="M11.8,12.5l-11,11c-0.2,0.2-0.5,0.2-0.7,0C0,23.3,0,23,0.1,22.8l11-11l-11-11C0,0.7,0,0.3,0.1,0.1
			C0.3,0,0.7,0,0.9,0.1l11,11l11-11C23,0,23.3,0,23.5,0.1c0.2,0.2,0.2,0.5,0,0.7l-11,11l11,11c0.2,0.2,0.2,0.5,0,0.7s-0.5,0.2-0.7,0
			L11.8,12.5L11.8,12.5z"/>
	</g>
</g>
</svg>
