<?xml version="1.0" encoding="utf-8"?>
<!-- Generator: Adobe Illustrator 20.0.0, SVG Export Plug-In . SVG Version: 6.00 Build 0)  -->
<svg version="1.1" id="圖層_1" xmlns="http://www.w3.org/2000/svg" xmlns:xlink="http://www.w3.org/1999/xlink" x="0px" y="0px"
	 viewBox="0 0 34.1 34.1" style="enable-background:new 0 0 34.1 34.1;" xml:space="preserve">
<style type="text/css">
	.st0{fill:#FFFFFF;}
</style>
<rect x="0.2" y="0" class="st0" width="33.9" height="33.9"/>
<g>
	<path d="M34.1,34.1H0V0h34.1V34.1z M1,33.1h32.1V1H1V33.1z"/>
</g>
<g>
	<title>increase</title>
	<g>
		<g>
			<path d="M22.2,13.1c-0.3,0-0.5-0.1-0.7-0.3c-0.4-0.4-0.4-1,0-1.4l6.6-6.6c0.4-0.4,1-0.4,1.4,0s0.4,1,0,1.4l-6.6,6.6
				C22.7,13,22.5,13.1,22.2,13.1z"/>
		</g>
		<g>
			<path d="M28.8,13.1c-0.6,0-1-0.4-1-1V6.5h-5.6c-0.6,0-1-0.4-1-1s0.4-1,1-1h6.6c0.6,0,1,0.4,1,1v6.6
				C29.8,12.7,29.4,13.1,28.8,13.1z"/>
		</g>
		<g>
			<path d="M5.2,30.1c-0.3,0-0.5-0.1-0.7-0.3c-0.4-0.4-0.4-1,0-1.4l6.6-6.6c0.4-0.4,1-0.4,1.4,0s0.4,1,0,1.4l-6.6,6.6
				C5.7,30,5.5,30.1,5.2,30.1z"/>
		</g>
		<g>
			<path d="M11.8,30.1H5.2c-0.6,0-1-0.4-1-1v-6.6c0-0.6,0.4-1,1-1s1,0.4,1,1v5.6h5.6c0.6,0,1,0.4,1,1S12.4,30.1,11.8,30.1z"/>
		</g>
		<g>
			<path d="M28.8,30.1c-0.3,0-0.5-0.1-0.7-0.3l-6.6-6.6c-0.4-0.4-0.4-1,0-1.4s1-0.4,1.4,0l6.6,6.6c0.4,0.4,0.4,1,0,1.4
				C29.3,30,29.1,30.1,28.8,30.1z"/>
		</g>
		<g>
			<path d="M28.8,30.1h-6.6c-0.6,0-1-0.4-1-1s0.4-1,1-1h5.6v-5.6c0-0.6,0.4-1,1-1s1,0.4,1,1v6.6C29.8,29.7,29.4,30.1,28.8,30.1z"/>
		</g>
		<g>
			<path d="M11.8,13.1c-0.3,0-0.5-0.1-0.7-0.3L4.5,6.2c-0.4-0.4-0.4-1,0-1.4s1-0.4,1.4,0l6.6,6.6c0.4,0.4,0.4,1,0,1.4
				C12.4,13,12.1,13.1,11.8,13.1z"/>
		</g>
		<g>
			<path d="M5.2,13.1c-0.6,0-1-0.4-1-1V5.5c0-0.6,0.4-1,1-1h6.6c0.6,0,1,0.4,1,1s-0.4,1-1,1H6.2v5.6C6.2,12.7,5.8,13.1,5.2,13.1z"/>
		</g>
	</g>
</g>
</svg>
